<svg xmlns="http://www.w3.org/2000/svg" xmlns:xlink="http://www.w3.org/1999/xlink" width="500" zoomAndPan="magnify" viewBox="0 0 375 374.999991" height="500" preserveAspectRatio="xMidYMid meet" version="1.0"><defs><g/><clipPath id="19682e95a6"><path d="M 67.609375 127.257812 L 312.859375 127.257812 L 312.859375 372.507812 L 67.609375 372.507812 Z M 67.609375 127.257812 " clip-rule="nonzero"/></clipPath><clipPath id="afd5d61d7a"><path d="M 116.402344 2.675781 L 296.402344 2.675781 L 296.402344 154.925781 L 116.402344 154.925781 Z M 116.402344 2.675781 " clip-rule="nonzero"/></clipPath></defs><path fill="#ffffff" d="M 252.078125 258.578125 C 252.722656 258.578125 253.371094 258.398438 253.949219 258.027344 L 254.253906 257.832031 C 255.246094 257.1875 256.214844 256.527344 257.15625 255.859375 C 258.726562 254.75 259.09375 252.582031 257.984375 251.015625 C 256.875 249.445312 254.703125 249.078125 253.136719 250.1875 C 252.269531 250.800781 251.375 251.40625 250.457031 252.007812 L 250.203125 252.171875 C 248.585938 253.207031 248.113281 255.355469 249.148438 256.972656 C 249.8125 258.011719 250.933594 258.578125 252.078125 258.578125 Z M 252.078125 258.578125 " fill-opacity="1" fill-rule="nonzero"/><path fill="#ffffff" d="M 206.492188 198.707031 C 206.492188 199.207031 206.441406 199.707031 206.34375 200.199219 C 206.246094 200.691406 206.101562 201.167969 205.90625 201.632812 C 205.714844 202.097656 205.480469 202.539062 205.199219 202.957031 C 204.921875 203.375 204.605469 203.761719 204.25 204.113281 C 203.894531 204.46875 203.507812 204.789062 203.089844 205.066406 C 202.671875 205.34375 202.230469 205.582031 201.769531 205.773438 C 201.304688 205.964844 200.824219 206.109375 200.332031 206.207031 C 199.839844 206.304688 199.34375 206.355469 198.839844 206.355469 C 198.339844 206.355469 197.839844 206.304688 197.347656 206.207031 C 196.855469 206.109375 196.375 205.964844 195.914062 205.773438 C 195.449219 205.582031 195.007812 205.34375 194.589844 205.066406 C 194.171875 204.789062 193.785156 204.46875 193.429688 204.113281 C 193.074219 203.761719 192.757812 203.375 192.480469 202.957031 C 192.199219 202.539062 191.964844 202.097656 191.773438 201.632812 C 191.582031 201.167969 191.433594 200.691406 191.335938 200.199219 C 191.238281 199.707031 191.191406 199.207031 191.191406 198.707031 C 191.191406 198.203125 191.238281 197.707031 191.335938 197.214844 C 191.433594 196.71875 191.582031 196.242188 191.773438 195.777344 C 191.964844 195.3125 192.199219 194.875 192.480469 194.457031 C 192.757812 194.039062 193.074219 193.652344 193.429688 193.296875 C 193.785156 192.941406 194.171875 192.625 194.589844 192.34375 C 195.007812 192.066406 195.449219 191.832031 195.914062 191.636719 C 196.375 191.445312 196.855469 191.300781 197.347656 191.203125 C 197.839844 191.105469 198.339844 191.054688 198.839844 191.054688 C 199.34375 191.054688 199.839844 191.105469 200.332031 191.203125 C 200.824219 191.300781 201.304688 191.445312 201.769531 191.636719 C 202.230469 191.832031 202.671875 192.066406 203.089844 192.34375 C 203.507812 192.625 203.894531 192.941406 204.25 193.296875 C 204.605469 193.652344 204.921875 194.039062 205.199219 194.457031 C 205.480469 194.875 205.714844 195.3125 205.90625 195.777344 C 206.101562 196.242188 206.246094 196.71875 206.34375 197.214844 C 206.441406 197.707031 206.492188 198.203125 206.492188 198.707031 Z M 206.492188 198.707031 " fill-opacity="1" fill-rule="nonzero"/><g clip-path="url(#19682e95a6)"><path fill="#ffffff" d="M 117.78125 214.8125 C 119.832031 219.191406 122.292969 223.375 125.167969 227.265625 C 136.074219 242.023438 152.664062 252.511719 170.675781 256.027344 C 175.914062 257.050781 181.304688 257.535156 186.519531 258.003906 C 197.898438 259.027344 208.652344 259.996094 216.464844 266.246094 C 225.886719 273.78125 228.652344 288.933594 222.761719 300.746094 C 213.605469 319.109375 189.511719 325.082031 171.503906 320.25 C 171.410156 320.222656 171.3125 320.222656 171.21875 320.203125 C 170.714844 299.617188 153.824219 283.027344 133.121094 283.027344 L 105.085938 283.027344 C 102.011719 283.027344 99.519531 285.519531 99.519531 288.589844 L 99.519531 295.152344 C 99.519531 308.921875 106.859375 321.007812 117.828125 327.707031 C 106.859375 334.410156 99.519531 346.496094 99.519531 360.265625 L 99.519531 366.828125 C 99.519531 369.898438 102.011719 372.390625 105.085938 372.390625 L 133.121094 372.390625 C 152.769531 372.390625 168.988281 357.449219 171.023438 338.332031 L 190.996094 348.683594 C 202.707031 354.753906 215.457031 357.742188 228.085938 357.742188 C 245.117188 357.742188 261.933594 352.308594 275.683594 341.679688 C 299.308594 323.417969 312.859375 295.835938 312.859375 266.011719 C 312.859375 213.300781 269.976562 170.421875 217.269531 170.421875 L 117.40625 170.421875 C 117.316406 170.40625 117.238281 170.375 117.148438 170.367188 C 114.089844 170.046875 111.355469 172.261719 111.03125 175.316406 C 110.625 179.1875 110.550781 183.082031 110.765625 186.964844 C 102.261719 186.675781 95.425781 179.683594 95.425781 171.109375 C 95.425781 162.34375 102.550781 155.210938 111.3125 155.210938 L 155.457031 155.210938 C 157.761719 155.210938 159.628906 153.34375 159.628906 151.039062 C 159.628906 148.734375 157.761719 146.867188 155.457031 146.867188 L 111.3125 146.867188 C 97.949219 146.867188 87.082031 157.742188 87.082031 171.109375 C 87.082031 184.46875 97.949219 195.339844 111.3125 195.339844 L 111.699219 195.339844 C 112.339844 199.109375 113.261719 202.832031 114.460938 206.464844 L 111.3125 206.464844 C 91.816406 206.464844 75.953125 190.605469 75.953125 171.109375 C 75.953125 151.605469 91.816406 135.738281 111.3125 135.738281 L 155.457031 135.738281 C 157.761719 135.738281 159.628906 133.871094 159.628906 131.566406 C 159.628906 129.261719 157.761719 127.394531 155.457031 127.394531 L 111.3125 127.394531 C 87.214844 127.394531 67.609375 147.007812 67.609375 171.109375 C 67.609375 195.207031 87.214844 214.8125 111.3125 214.8125 Z M 110.648438 295.152344 L 110.648438 294.152344 L 133.121094 294.152344 C 148.003906 294.152344 160.113281 306.261719 160.113281 321.144531 L 160.113281 322.144531 L 137.640625 322.144531 C 122.753906 322.144531 110.648438 310.039062 110.648438 295.152344 Z M 160.113281 334.273438 C 160.113281 349.15625 148.003906 361.265625 133.121094 361.265625 L 110.648438 361.265625 L 110.648438 360.265625 C 110.648438 345.382812 122.753906 333.273438 137.640625 333.273438 L 160.113281 333.273438 Z M 268.878906 332.875 C 268.484375 333.179688 268.078125 333.472656 267.679688 333.765625 C 264.078125 333.582031 260.53125 333.105469 257.09375 332.320312 C 255.222656 331.894531 253.359375 333.0625 252.929688 334.933594 C 252.5 336.804688 253.671875 338.667969 255.542969 339.097656 C 256.390625 339.292969 257.257812 339.449219 258.117188 339.609375 C 239.054688 349.109375 215.882812 349.050781 196.117188 338.804688 L 184.863281 332.972656 C 198.082031 332.835938 211.863281 328.589844 222.109375 319.496094 C 226.941406 324.804688 232.496094 329.238281 238.707031 332.675781 C 241.007812 333.949219 243.414062 335.09375 245.855469 336.070312 C 246.277344 336.242188 246.71875 336.320312 247.148438 336.320312 C 248.527344 336.320312 249.832031 335.496094 250.375 334.140625 C 251.089844 332.355469 250.226562 330.332031 248.445312 329.617188 C 246.269531 328.742188 244.125 327.726562 242.074219 326.589844 C 236.410156 323.453125 231.34375 319.386719 226.957031 314.496094 C 229.148438 311.863281 231.101562 308.953125 232.71875 305.710938 C 234.207031 302.71875 235.28125 299.566406 235.96875 296.347656 C 243.210938 298.527344 250.734375 299.65625 258.238281 299.65625 C 261.09375 299.65625 263.941406 299.496094 266.773438 299.171875 C 280.226562 297.636719 291.066406 292.699219 298.875 287.808594 C 294.1875 305.519531 283.835938 321.316406 268.878906 332.875 Z M 280.84375 210.492188 C 279.132812 217.875 274.496094 230.832031 261.972656 242.890625 C 260.589844 244.222656 260.546875 246.421875 261.878906 247.804688 C 262.5625 248.515625 263.472656 248.871094 264.382812 248.871094 C 265.253906 248.871094 266.121094 248.546875 266.796875 247.898438 C 277.980469 237.128906 283.476562 225.613281 286.175781 217.253906 C 295.957031 231.039062 301.730469 247.859375 301.730469 266.007812 C 301.730469 270.058594 301.414062 274.050781 300.859375 277.984375 C 293.835938 283.375 281.914062 290.445312 265.984375 292.261719 C 254.265625 293.601562 244.164062 291.683594 236.859375 289.355469 C 237.183594 281.527344 235.332031 273.703125 231.5625 267.15625 C 234.945312 266.207031 238.792969 265.054688 242.742188 263.535156 C 244.535156 262.847656 245.429688 260.835938 244.742188 259.042969 C 244.050781 257.25 242.039062 256.359375 240.25 257.042969 C 235.582031 258.835938 230.957031 260.121094 227.179688 261.15625 C 226.015625 259.867188 224.777344 258.644531 223.414062 257.554688 C 216.257812 251.832031 207.914062 249.484375 199.339844 248.214844 C 206.359375 244.636719 213.816406 239.230469 220.179688 231.054688 C 233.847656 213.492188 234.015625 193.984375 232.625 182.972656 C 251.710938 186.496094 268.558594 196.445312 280.84375 210.492188 Z M 224.011719 181.839844 C 225.394531 190.585938 226.382812 209.5 213.59375 225.929688 C 202.609375 240.050781 187.820312 244.65625 179.777344 246.15625 C 177.398438 245.878906 175.078125 245.550781 172.808594 245.109375 C 157.492188 242.117188 143.390625 233.203125 134.117188 220.652344 C 125.847656 209.460938 121.484375 195.453125 121.789062 181.546875 L 217.269531 181.546875 C 219.542969 181.546875 221.785156 181.664062 224.011719 181.839844 Z M 224.011719 181.839844 " fill-opacity="1" fill-rule="nonzero"/></g><path fill="#ffffff" d="M 162.429688 89.242188 L 158.855469 79.363281 C 158.101562 77.28125 155.8125 76.203125 153.730469 76.960938 C 151.652344 77.71875 150.582031 80.015625 151.335938 82.101562 L 154.910156 91.976562 C 155.5 93.609375 157.035156 94.621094 158.667969 94.621094 C 159.125 94.621094 159.582031 94.542969 160.03125 94.378906 C 162.109375 93.625 163.183594 91.324219 162.429688 89.242188 Z M 162.429688 89.242188 " fill-opacity="1" fill-rule="nonzero"/><path fill="#ffffff" d="M 166.882812 100.480469 C 166.128906 98.398438 163.832031 97.324219 161.757812 98.078125 C 159.683594 98.832031 158.609375 101.128906 159.363281 103.214844 L 164.664062 117.875 C 165.253906 119.503906 166.792969 120.519531 168.425781 120.519531 C 168.878906 120.519531 169.339844 120.441406 169.789062 120.277344 C 171.863281 119.523438 172.9375 117.222656 172.183594 115.140625 Z M 166.882812 100.480469 " fill-opacity="1" fill-rule="nonzero"/><g clip-path="url(#afd5d61d7a)"><path fill="#ffffff" d="M 281.964844 32.347656 C 274.003906 32.347656 267.523438 38.839844 267.523438 46.820312 C 267.523438 48.957031 268 50.980469 268.835938 52.808594 L 239.179688 73.605469 L 214.875 28.976562 C 218.480469 26.34375 220.839844 22.089844 220.839844 17.285156 C 220.839844 9.304688 214.363281 2.808594 206.402344 2.808594 C 198.4375 2.808594 191.964844 9.300781 191.964844 17.285156 C 191.964844 22.089844 194.320312 26.34375 197.925781 28.976562 L 173.625 73.605469 L 143.96875 52.808594 C 144.800781 50.980469 145.277344 48.957031 145.277344 46.820312 C 145.277344 38.839844 138.800781 32.347656 130.839844 32.347656 C 122.878906 32.347656 116.402344 38.839844 116.402344 46.820312 C 116.402344 54.605469 122.570312 60.957031 130.265625 61.261719 L 155.082031 130.757812 L 151.527344 150.257812 C 151.316406 151.425781 151.632812 152.632812 152.390625 153.546875 C 153.152344 154.457031 154.273438 154.988281 155.464844 154.988281 L 257.339844 154.988281 C 258.527344 154.988281 259.652344 154.457031 260.410156 153.546875 C 261.171875 152.632812 261.488281 151.425781 261.273438 150.257812 L 257.71875 130.753906 L 282.441406 61.269531 C 290.179688 61.015625 296.402344 54.640625 296.402344 46.820312 C 296.402344 38.839844 289.925781 32.347656 281.964844 32.347656 Z M 206.402344 10.828125 C 209.949219 10.828125 212.839844 13.726562 212.839844 17.285156 C 212.839844 20.84375 209.949219 23.738281 206.402344 23.738281 C 202.851562 23.738281 199.964844 20.84375 199.964844 17.285156 C 199.964844 13.726562 202.851562 10.828125 206.402344 10.828125 Z M 132.734375 52.953125 C 132.363281 52.976562 131.992188 53.03125 131.621094 53.164062 C 131.59375 53.175781 131.570312 53.191406 131.542969 53.203125 C 131.308594 53.230469 131.078125 53.277344 130.835938 53.277344 C 127.289062 53.273438 124.402344 50.378906 124.402344 46.820312 C 124.402344 43.261719 127.289062 40.367188 130.839844 40.367188 C 134.390625 40.367188 137.277344 43.261719 137.277344 46.820312 C 137.277344 49.714844 135.355469 52.136719 132.734375 52.953125 Z M 250.769531 126.414062 L 236.734375 126.414062 C 234.527344 126.414062 232.734375 128.207031 232.734375 130.421875 C 232.734375 132.636719 234.527344 134.433594 236.734375 134.433594 L 250.253906 134.433594 L 252.542969 146.96875 L 160.261719 146.96875 L 162.546875 134.433594 L 223.734375 134.433594 C 225.941406 134.433594 227.734375 132.636719 227.734375 130.421875 C 227.734375 128.207031 225.941406 126.414062 223.734375 126.414062 L 162.027344 126.414062 L 138.070312 59.328125 C 138.296875 59.195312 138.515625 59.066406 138.734375 58.921875 L 172.699219 82.746094 C 173.378906 83.222656 174.179688 83.472656 174.992188 83.472656 C 175.296875 83.472656 175.605469 83.433594 175.90625 83.363281 C 177.015625 83.105469 177.957031 82.382812 178.503906 81.382812 L 205.554688 31.714844 C 205.835938 31.730469 206.113281 31.753906 206.402344 31.753906 C 206.6875 31.753906 206.96875 31.730469 207.25 31.714844 L 234.296875 81.382812 C 234.84375 82.382812 235.789062 83.105469 236.894531 83.363281 C 237.195312 83.433594 237.503906 83.472656 237.808594 83.472656 C 238.621094 83.472656 239.425781 83.222656 240.101562 82.746094 L 274.070312 58.921875 C 274.257812 59.050781 274.457031 59.164062 274.652344 59.28125 Z M 281.964844 53.273438 C 278.414062 53.273438 275.523438 50.378906 275.523438 46.820312 C 275.523438 43.261719 278.414062 40.367188 281.964844 40.367188 C 285.511719 40.367188 288.402344 43.261719 288.402344 46.820312 C 288.402344 50.378906 285.511719 53.273438 281.964844 53.273438 Z M 281.964844 53.273438 " fill-opacity="1" fill-rule="nonzero"/></g><g fill="#ffffff" fill-opacity="1"><g transform="translate(62.324926, 270.871409)"><g><path d="M 9.40625 -21.765625 C 11.5625 -21.765625 13.328125 -21.25 14.703125 -20.21875 C 16.078125 -19.1875 16.765625 -17.828125 16.765625 -16.140625 C 16.765625 -14.128906 15.410156 -11.742188 12.703125 -8.984375 L 8.328125 -4.328125 L 17.40625 -4.328125 L 17.40625 0 L 1.296875 0 L 1.296875 -3.53125 L 8.984375 -11.6875 C 10.359375 -13.125 11.046875 -14.351562 11.046875 -15.375 C 11.046875 -15.988281 10.828125 -16.46875 10.390625 -16.8125 C 9.960938 -17.164062 9.367188 -17.34375 8.609375 -17.34375 C 6.828125 -17.34375 4.867188 -16.429688 2.734375 -14.609375 L 0.671875 -18.546875 C 3.546875 -20.691406 6.457031 -21.765625 9.40625 -21.765625 Z M 9.40625 -21.765625 "/></g></g></g><g fill="#ffffff" fill-opacity="1"><g transform="translate(83.225528, 270.871409)"><g><path d="M 10.828125 -21.703125 C 13.878906 -21.703125 16.222656 -20.757812 17.859375 -18.875 C 19.503906 -16.988281 20.328125 -14.296875 20.328125 -10.796875 C 20.328125 -7.265625 19.503906 -4.554688 17.859375 -2.671875 C 16.222656 -0.785156 13.878906 0.15625 10.828125 0.15625 C 7.753906 0.15625 5.390625 -0.785156 3.734375 -2.671875 C 2.085938 -4.554688 1.265625 -7.265625 1.265625 -10.796875 C 1.265625 -14.296875 2.085938 -16.988281 3.734375 -18.875 C 5.390625 -20.757812 7.753906 -21.703125 10.828125 -21.703125 Z M 10.828125 -17.71875 C 9.429688 -17.71875 8.425781 -17.175781 7.8125 -16.09375 C 7.195312 -15.019531 6.890625 -13.253906 6.890625 -10.796875 C 6.890625 -8.335938 7.195312 -6.5625 7.8125 -5.46875 C 8.425781 -4.382812 9.429688 -3.84375 10.828125 -3.84375 C 12.179688 -3.84375 13.171875 -4.390625 13.796875 -5.484375 C 14.421875 -6.585938 14.734375 -8.359375 14.734375 -10.796875 C 14.734375 -13.234375 14.421875 -14.992188 13.796875 -16.078125 C 13.171875 -17.171875 12.179688 -17.71875 10.828125 -17.71875 Z M 10.828125 -17.71875 "/></g></g></g><g fill="#ffffff" fill-opacity="1"><g transform="translate(107.291791, 270.871409)"><g><path d="M 9.40625 -21.765625 C 11.5625 -21.765625 13.328125 -21.25 14.703125 -20.21875 C 16.078125 -19.1875 16.765625 -17.828125 16.765625 -16.140625 C 16.765625 -14.128906 15.410156 -11.742188 12.703125 -8.984375 L 8.328125 -4.328125 L 17.40625 -4.328125 L 17.40625 0 L 1.296875 0 L 1.296875 -3.53125 L 8.984375 -11.6875 C 10.359375 -13.125 11.046875 -14.351562 11.046875 -15.375 C 11.046875 -15.988281 10.828125 -16.46875 10.390625 -16.8125 C 9.960938 -17.164062 9.367188 -17.34375 8.609375 -17.34375 C 6.828125 -17.34375 4.867188 -16.429688 2.734375 -14.609375 L 0.671875 -18.546875 C 3.546875 -20.691406 6.457031 -21.765625 9.40625 -21.765625 Z M 9.40625 -21.765625 "/></g></g></g><g fill="#ffffff" fill-opacity="1"><g transform="translate(128.192392, 270.871409)"><g><path d="M 9.84375 -12.796875 L 10.859375 -12.640625 C 12.472656 -12.390625 13.765625 -11.75 14.734375 -10.71875 C 15.710938 -9.695312 16.203125 -8.378906 16.203125 -6.765625 C 16.203125 -4.691406 15.445312 -3.003906 13.9375 -1.703125 C 12.4375 -0.398438 10.445312 0.25 7.96875 0.25 C 6.507812 0.25 5.050781 0.015625 3.59375 -0.453125 C 2.144531 -0.929688 0.925781 -1.570312 -0.0625 -2.375 L 2.15625 -6.515625 C 3.769531 -4.773438 5.5625 -3.90625 7.53125 -3.90625 C 8.59375 -3.90625 9.410156 -4.148438 9.984375 -4.640625 C 10.566406 -5.128906 10.859375 -5.816406 10.859375 -6.703125 C 10.859375 -8.503906 9.738281 -9.40625 7.5 -9.40625 L 4.0625 -9.40625 L 4.0625 -12.328125 L 8.859375 -17.3125 L 1.015625 -17.3125 L 1.015625 -21.5 L 15.21875 -21.5 L 15.21875 -18.390625 Z M 9.84375 -12.796875 "/></g></g></g></svg>