<svg xmlns="http://www.w3.org/2000/svg" xmlns:xlink="http://www.w3.org/1999/xlink" width="600" zoomAndPan="magnify" viewBox="0 0 450 225" height="300" preserveAspectRatio="xMidYMid meet" version="1.0"><defs><g/><clipPath id="ab3e3dc38e"><path d="M 14.191406 84.636719 L 113.941406 84.636719 L 113.941406 184.386719 L 14.191406 184.386719 Z M 14.191406 84.636719 " clip-rule="nonzero"/></clipPath><clipPath id="2676209ef9"><path d="M 34.113281 33.769531 L 107.613281 33.769531 L 107.613281 96.019531 L 34.113281 96.019531 Z M 34.113281 33.769531 " clip-rule="nonzero"/></clipPath></defs><path fill="#ffffff" d="M 89.222656 138.050781 C 89.480469 138.050781 89.746094 137.976562 89.980469 137.824219 L 90.105469 137.746094 C 90.507812 137.484375 90.902344 137.214844 91.285156 136.945312 C 91.921875 136.492188 92.074219 135.609375 91.621094 134.972656 C 91.171875 134.335938 90.289062 134.183594 89.652344 134.636719 C 89.296875 134.886719 88.933594 135.132812 88.5625 135.375 L 88.457031 135.441406 C 87.800781 135.863281 87.605469 136.738281 88.027344 137.398438 C 88.296875 137.820312 88.753906 138.050781 89.222656 138.050781 Z M 89.222656 138.050781 " fill-opacity="1" fill-rule="nonzero"/><path fill="#ffffff" d="M 70.679688 113.699219 C 70.679688 114.109375 70.597656 114.507812 70.441406 114.886719 C 70.285156 115.269531 70.058594 115.605469 69.765625 115.898438 C 69.476562 116.1875 69.140625 116.414062 68.757812 116.570312 C 68.375 116.730469 67.980469 116.808594 67.566406 116.808594 C 67.15625 116.808594 66.757812 116.730469 66.375 116.570312 C 65.996094 116.414062 65.660156 116.1875 65.367188 115.898438 C 65.074219 115.605469 64.851562 115.269531 64.691406 114.886719 C 64.535156 114.507812 64.457031 114.109375 64.457031 113.699219 C 64.457031 113.285156 64.535156 112.886719 64.691406 112.507812 C 64.851562 112.125 65.074219 111.789062 65.367188 111.496094 C 65.660156 111.207031 65.996094 110.980469 66.375 110.824219 C 66.757812 110.664062 67.15625 110.585938 67.566406 110.585938 C 67.980469 110.585938 68.375 110.664062 68.757812 110.824219 C 69.140625 110.980469 69.476562 111.207031 69.765625 111.496094 C 70.058594 111.789062 70.285156 112.125 70.441406 112.507812 C 70.597656 112.886719 70.679688 113.285156 70.679688 113.699219 Z M 70.679688 113.699219 " fill-opacity="1" fill-rule="nonzero"/><g clip-path="url(#ab3e3dc38e)"><path fill="#ffffff" d="M 34.597656 120.25 C 35.429688 122.03125 36.433594 123.730469 37.601562 125.3125 C 42.039062 131.316406 48.785156 135.582031 56.109375 137.011719 C 58.242188 137.429688 60.433594 137.625 62.554688 137.816406 C 67.183594 138.230469 71.558594 138.625 74.734375 141.167969 C 78.566406 144.230469 79.691406 150.394531 77.296875 155.199219 C 73.574219 162.667969 63.773438 165.097656 56.449219 163.132812 C 56.410156 163.121094 56.371094 163.121094 56.332031 163.113281 C 56.125 154.742188 49.257812 147.992188 40.835938 147.992188 L 29.433594 147.992188 C 28.183594 147.992188 27.171875 149.007812 27.171875 150.257812 L 27.171875 152.925781 C 27.171875 158.527344 30.15625 163.441406 34.617188 166.167969 C 30.15625 168.890625 27.171875 173.808594 27.171875 179.40625 L 27.171875 182.078125 C 27.171875 183.328125 28.183594 184.339844 29.433594 184.339844 L 40.835938 184.339844 C 48.828125 184.339844 55.425781 178.261719 56.253906 170.488281 L 64.375 174.699219 C 69.140625 177.167969 74.324219 178.382812 79.460938 178.382812 C 86.390625 178.382812 93.230469 176.171875 98.820312 171.847656 C 108.429688 164.421875 113.941406 153.203125 113.941406 141.070312 C 113.941406 119.632812 96.5 102.191406 75.0625 102.191406 L 34.445312 102.191406 C 34.410156 102.1875 34.375 102.175781 34.339844 102.171875 C 33.097656 102.039062 31.984375 102.941406 31.851562 104.183594 C 31.6875 105.757812 31.65625 107.34375 31.746094 108.921875 C 28.285156 108.804688 25.503906 105.960938 25.503906 102.472656 C 25.503906 98.90625 28.402344 96.007812 31.964844 96.007812 L 49.921875 96.007812 C 50.859375 96.007812 51.617188 95.246094 51.617188 94.308594 C 51.617188 93.375 50.859375 92.613281 49.921875 92.613281 L 31.964844 92.613281 C 26.53125 92.613281 22.113281 97.035156 22.113281 102.472656 C 22.113281 107.90625 26.53125 112.328125 31.964844 112.328125 L 32.125 112.328125 C 32.382812 113.863281 32.761719 115.375 33.25 116.855469 L 31.964844 116.855469 C 24.035156 116.855469 17.585938 110.402344 17.585938 102.472656 C 17.585938 94.539062 24.035156 88.085938 31.964844 88.085938 L 49.921875 88.085938 C 50.859375 88.085938 51.621094 87.328125 51.621094 86.390625 C 51.621094 85.453125 50.859375 84.695312 49.921875 84.695312 L 31.964844 84.695312 C 22.164062 84.695312 14.191406 92.667969 14.191406 102.472656 C 14.191406 112.273438 22.164062 120.25 31.964844 120.25 Z M 31.695312 152.925781 L 31.695312 152.519531 L 40.835938 152.519531 C 46.890625 152.519531 51.816406 157.445312 51.816406 163.496094 L 51.816406 163.902344 L 42.675781 163.902344 C 36.621094 163.902344 31.695312 158.980469 31.695312 152.925781 Z M 51.816406 168.835938 C 51.816406 174.890625 46.890625 179.816406 40.835938 179.816406 L 31.695312 179.816406 L 31.695312 179.410156 C 31.695312 173.355469 36.621094 168.429688 42.675781 168.429688 L 51.816406 168.429688 Z M 96.054688 168.269531 C 95.894531 168.390625 95.730469 168.511719 95.566406 168.628906 C 94.101562 168.554688 92.65625 168.363281 91.261719 168.042969 C 90.5 167.867188 89.742188 168.34375 89.566406 169.105469 C 89.390625 169.867188 89.867188 170.625 90.628906 170.800781 C 90.976562 170.878906 91.328125 170.941406 91.675781 171.007812 C 83.921875 174.871094 74.5 174.847656 66.457031 170.679688 L 61.882812 168.308594 C 67.257812 168.253906 72.863281 166.523438 77.03125 162.824219 C 78.996094 164.984375 81.257812 166.789062 83.78125 168.1875 C 84.71875 168.703125 85.695312 169.167969 86.6875 169.566406 C 86.863281 169.636719 87.039062 169.667969 87.214844 169.667969 C 87.777344 169.667969 88.308594 169.335938 88.527344 168.78125 C 88.820312 168.058594 88.46875 167.234375 87.742188 166.941406 C 86.859375 166.585938 85.984375 166.171875 85.152344 165.710938 C 82.847656 164.4375 80.789062 162.78125 79.003906 160.792969 C 79.894531 159.722656 80.6875 158.539062 81.347656 157.21875 C 81.953125 156.003906 82.386719 154.722656 82.667969 153.410156 C 85.613281 154.296875 88.671875 154.757812 91.726562 154.757812 C 92.886719 154.757812 94.046875 154.691406 95.199219 154.558594 C 100.667969 153.933594 105.078125 151.925781 108.253906 149.9375 C 106.347656 157.140625 102.136719 163.566406 96.054688 168.269531 Z M 100.917969 118.492188 C 100.222656 121.496094 98.339844 126.761719 93.246094 131.667969 C 92.683594 132.210938 92.664062 133.105469 93.207031 133.667969 C 93.484375 133.957031 93.855469 134.101562 94.226562 134.101562 C 94.578125 134.101562 94.933594 133.96875 95.207031 133.707031 C 99.753906 129.324219 101.992188 124.640625 103.089844 121.242188 C 107.066406 126.847656 109.414062 133.6875 109.414062 141.070312 C 109.414062 142.71875 109.289062 144.34375 109.0625 145.941406 C 106.203125 148.132812 101.355469 151.011719 94.875 151.75 C 90.109375 152.292969 86 151.515625 83.03125 150.566406 C 83.160156 147.382812 82.410156 144.199219 80.875 141.539062 C 82.25 141.152344 83.816406 140.683594 85.421875 140.066406 C 86.152344 139.785156 86.515625 138.96875 86.234375 138.238281 C 85.957031 137.507812 85.136719 137.144531 84.410156 137.425781 C 82.511719 138.152344 80.628906 138.675781 79.09375 139.097656 C 78.621094 138.574219 78.117188 138.078125 77.5625 137.632812 C 74.652344 135.304688 71.257812 134.351562 67.769531 133.832031 C 70.625 132.378906 73.65625 130.179688 76.246094 126.855469 C 81.804688 119.710938 81.875 111.777344 81.308594 107.296875 C 89.070312 108.730469 95.921875 112.777344 100.917969 118.492188 Z M 77.804688 106.839844 C 78.367188 110.394531 78.769531 118.085938 73.566406 124.769531 C 69.097656 130.511719 63.085938 132.386719 59.8125 132.996094 C 58.847656 132.886719 57.902344 132.75 56.980469 132.570312 C 50.75 131.351562 45.015625 127.726562 41.242188 122.625 C 37.878906 118.074219 36.105469 112.375 36.226562 106.71875 L 75.0625 106.71875 C 75.988281 106.71875 76.898438 106.765625 77.804688 106.839844 Z M 77.804688 106.839844 " fill-opacity="1" fill-rule="nonzero"/></g><path fill="#ffffff" d="M 52.910156 69.160156 L 51.449219 65.121094 C 51.144531 64.269531 50.207031 63.832031 49.355469 64.140625 C 48.507812 64.449219 48.070312 65.390625 48.378906 66.242188 L 49.839844 70.28125 C 50.078125 70.945312 50.707031 71.359375 51.375 71.359375 C 51.558594 71.359375 51.746094 71.328125 51.929688 71.261719 C 52.777344 70.953125 53.21875 70.011719 52.910156 69.160156 Z M 52.910156 69.160156 " fill-opacity="1" fill-rule="nonzero"/><path fill="#ffffff" d="M 54.726562 73.757812 C 54.421875 72.90625 53.480469 72.464844 52.636719 72.773438 C 51.789062 73.082031 51.347656 74.023438 51.65625 74.875 L 53.820312 80.867188 C 54.0625 81.535156 54.691406 81.949219 55.359375 81.949219 C 55.542969 81.949219 55.730469 81.917969 55.914062 81.851562 C 56.761719 81.542969 57.199219 80.601562 56.894531 79.75 Z M 54.726562 73.757812 " fill-opacity="1" fill-rule="nonzero"/><g clip-path="url(#2676209ef9)"><path fill="#ffffff" d="M 101.71875 45.898438 C 98.46875 45.898438 95.824219 48.554688 95.824219 51.816406 C 95.824219 52.691406 96.019531 53.519531 96.359375 54.265625 L 84.25 62.769531 L 74.324219 44.523438 C 75.796875 43.445312 76.761719 41.707031 76.761719 39.742188 C 76.761719 36.480469 74.117188 33.824219 70.863281 33.824219 C 67.613281 33.824219 64.96875 36.476562 64.96875 39.742188 C 64.96875 41.707031 65.933594 43.445312 67.402344 44.523438 L 57.480469 62.769531 L 45.371094 54.265625 C 45.710938 53.519531 45.90625 52.691406 45.90625 51.816406 C 45.90625 48.554688 43.261719 45.898438 40.011719 45.898438 C 36.757812 45.898438 34.113281 48.554688 34.113281 51.816406 C 34.113281 55 36.632812 57.597656 39.777344 57.722656 L 49.910156 86.136719 L 48.457031 94.109375 C 48.371094 94.585938 48.5 95.082031 48.808594 95.453125 C 49.121094 95.828125 49.578125 96.042969 50.066406 96.042969 L 91.664062 96.042969 C 92.148438 96.042969 92.609375 95.828125 92.917969 95.453125 C 93.230469 95.082031 93.359375 94.585938 93.269531 94.109375 L 91.820312 86.132812 L 101.914062 57.726562 C 105.074219 57.621094 107.613281 55.015625 107.613281 51.816406 C 107.613281 48.554688 104.96875 45.898438 101.71875 45.898438 Z M 70.863281 37.101562 C 72.3125 37.101562 73.492188 38.285156 73.492188 39.742188 C 73.492188 41.195312 72.3125 42.378906 70.863281 42.378906 C 69.414062 42.378906 68.234375 41.195312 68.234375 39.742188 C 68.234375 38.285156 69.414062 37.101562 70.863281 37.101562 Z M 40.785156 54.324219 C 40.632812 54.335938 40.480469 54.359375 40.328125 54.410156 C 40.316406 54.414062 40.308594 54.421875 40.296875 54.425781 C 40.203125 54.4375 40.109375 54.457031 40.007812 54.457031 C 38.558594 54.457031 37.382812 53.273438 37.382812 51.816406 C 37.382812 50.363281 38.558594 49.179688 40.011719 49.179688 C 41.460938 49.179688 42.640625 50.363281 42.640625 51.816406 C 42.640625 53 41.855469 53.992188 40.785156 54.324219 Z M 88.980469 84.359375 L 83.25 84.359375 C 82.347656 84.359375 81.617188 85.09375 81.617188 86 C 81.617188 86.902344 82.347656 87.636719 83.25 87.636719 L 88.769531 87.636719 L 89.703125 92.765625 L 52.023438 92.765625 L 52.957031 87.636719 L 77.941406 87.636719 C 78.84375 87.636719 79.574219 86.902344 79.574219 86 C 79.574219 85.09375 78.84375 84.359375 77.941406 84.359375 L 52.746094 84.359375 L 42.964844 56.929688 C 43.054688 56.878906 43.144531 56.824219 43.234375 56.765625 L 57.105469 66.507812 C 57.378906 66.699219 57.707031 66.800781 58.039062 66.800781 C 58.164062 66.800781 58.289062 66.789062 58.414062 66.757812 C 58.863281 66.652344 59.25 66.359375 59.472656 65.949219 L 70.519531 45.640625 C 70.632812 45.648438 70.746094 45.65625 70.863281 45.65625 C 70.980469 45.65625 71.09375 45.648438 71.210938 45.640625 L 82.253906 65.949219 C 82.476562 66.359375 82.863281 66.652344 83.316406 66.757812 C 83.4375 66.789062 83.566406 66.800781 83.6875 66.800781 C 84.019531 66.800781 84.347656 66.699219 84.625 66.507812 L 98.496094 56.765625 C 98.574219 56.816406 98.652344 56.863281 98.734375 56.910156 Z M 101.71875 54.457031 C 100.269531 54.457031 99.089844 53.273438 99.089844 51.816406 C 99.089844 50.363281 100.269531 49.179688 101.71875 49.179688 C 103.167969 49.179688 104.347656 50.363281 104.347656 51.816406 C 104.347656 53.273438 103.167969 54.457031 101.71875 54.457031 Z M 101.71875 54.457031 " fill-opacity="1" fill-rule="nonzero"/></g><g fill="#ffffff" fill-opacity="1"><g transform="translate(12.033882, 143.278127)"><g><path d="M 3.84375 -8.890625 C 4.71875 -8.890625 5.4375 -8.675781 6 -8.25 C 6.5625 -7.820312 6.84375 -7.269531 6.84375 -6.59375 C 6.84375 -5.769531 6.289062 -4.789062 5.1875 -3.65625 L 3.40625 -1.765625 L 7.09375 -1.765625 L 7.09375 0 L 0.53125 0 L 0.53125 -1.4375 L 3.65625 -4.765625 C 4.21875 -5.347656 4.5 -5.847656 4.5 -6.265625 C 4.5 -6.523438 4.410156 -6.722656 4.234375 -6.859375 C 4.066406 -7.003906 3.828125 -7.078125 3.515625 -7.078125 C 2.785156 -7.078125 1.984375 -6.703125 1.109375 -5.953125 L 0.28125 -7.5625 C 1.445312 -8.445312 2.632812 -8.890625 3.84375 -8.890625 Z M 3.84375 -8.890625 "/></g></g></g><g fill="#ffffff" fill-opacity="1"><g transform="translate(20.568059, 143.278127)"><g><path d="M 4.421875 -8.859375 C 5.660156 -8.859375 6.613281 -8.472656 7.28125 -7.703125 C 7.957031 -6.929688 8.296875 -5.832031 8.296875 -4.40625 C 8.296875 -2.96875 7.957031 -1.863281 7.28125 -1.09375 C 6.613281 -0.320312 5.660156 0.0625 4.421875 0.0625 C 3.160156 0.0625 2.191406 -0.320312 1.515625 -1.09375 C 0.847656 -1.863281 0.515625 -2.96875 0.515625 -4.40625 C 0.515625 -5.832031 0.847656 -6.929688 1.515625 -7.703125 C 2.191406 -8.472656 3.160156 -8.859375 4.421875 -8.859375 Z M 4.421875 -7.234375 C 3.847656 -7.234375 3.4375 -7.007812 3.1875 -6.5625 C 2.9375 -6.125 2.8125 -5.398438 2.8125 -4.390625 C 2.8125 -3.390625 2.9375 -2.664062 3.1875 -2.21875 C 3.4375 -1.78125 3.847656 -1.5625 4.421875 -1.5625 C 4.972656 -1.5625 5.375 -1.785156 5.625 -2.234375 C 5.882812 -2.679688 6.015625 -3.398438 6.015625 -4.390625 C 6.015625 -5.390625 5.882812 -6.113281 5.625 -6.5625 C 5.375 -7.007812 4.972656 -7.234375 4.421875 -7.234375 Z M 4.421875 -7.234375 "/></g></g></g><g fill="#ffffff" fill-opacity="1"><g transform="translate(30.394845, 143.278127)"><g><path d="M 3.84375 -8.890625 C 4.71875 -8.890625 5.4375 -8.675781 6 -8.25 C 6.5625 -7.820312 6.84375 -7.269531 6.84375 -6.59375 C 6.84375 -5.769531 6.289062 -4.789062 5.1875 -3.65625 L 3.40625 -1.765625 L 7.09375 -1.765625 L 7.09375 0 L 0.53125 0 L 0.53125 -1.4375 L 3.65625 -4.765625 C 4.21875 -5.347656 4.5 -5.847656 4.5 -6.265625 C 4.5 -6.523438 4.410156 -6.722656 4.234375 -6.859375 C 4.066406 -7.003906 3.828125 -7.078125 3.515625 -7.078125 C 2.785156 -7.078125 1.984375 -6.703125 1.109375 -5.953125 L 0.28125 -7.5625 C 1.445312 -8.445312 2.632812 -8.890625 3.84375 -8.890625 Z M 3.84375 -8.890625 "/></g></g></g><g fill="#ffffff" fill-opacity="1"><g transform="translate(38.929022, 143.278127)"><g><path d="M 4.015625 -5.21875 L 4.421875 -5.15625 C 5.085938 -5.050781 5.617188 -4.789062 6.015625 -4.375 C 6.410156 -3.957031 6.609375 -3.421875 6.609375 -2.765625 C 6.609375 -1.921875 6.300781 -1.234375 5.6875 -0.703125 C 5.070312 -0.171875 4.257812 0.09375 3.25 0.09375 C 2.65625 0.09375 2.0625 0 1.46875 -0.1875 C 0.875 -0.382812 0.375 -0.644531 -0.03125 -0.96875 L 0.875 -2.65625 C 1.539062 -1.945312 2.273438 -1.59375 3.078125 -1.59375 C 3.503906 -1.59375 3.832031 -1.691406 4.0625 -1.890625 C 4.300781 -2.097656 4.421875 -2.378906 4.421875 -2.734375 C 4.421875 -3.472656 3.96875 -3.84375 3.0625 -3.84375 L 1.65625 -3.84375 L 1.65625 -5.03125 L 3.609375 -7.0625 L 0.40625 -7.0625 L 0.40625 -8.765625 L 6.203125 -8.765625 L 6.203125 -7.5 Z M 4.015625 -5.21875 "/></g></g></g><g fill="#ffffff" fill-opacity="1"><g transform="translate(160.03373, 118.837208)"><g><path d="M 3.203125 -32.046875 L 18.359375 -32.046875 C 21.960938 -32.046875 24.820312 -31.320312 26.9375 -29.875 C 29.0625 -28.425781 30.125 -26.476562 30.125 -24.03125 C 30.125 -22.351562 29.632812 -20.878906 28.65625 -19.609375 C 27.675781 -18.347656 26.332031 -17.472656 24.625 -16.984375 C 26.644531 -16.585938 28.25 -15.65625 29.4375 -14.1875 C 30.625 -12.726562 31.21875 -10.957031 31.21875 -8.875 C 31.21875 -6.164062 30.109375 -4.007812 27.890625 -2.40625 C 25.679688 -0.800781 22.6875 0 18.90625 0 L 3.203125 0 Z M 11.3125 -25.828125 L 11.3125 -19.234375 L 17.90625 -19.234375 C 19.09375 -19.234375 20.035156 -19.53125 20.734375 -20.125 C 21.441406 -20.71875 21.796875 -21.53125 21.796875 -22.5625 C 21.796875 -23.570312 21.441406 -24.367188 20.734375 -24.953125 C 20.035156 -25.535156 19.09375 -25.828125 17.90625 -25.828125 Z M 11.3125 -13.375 L 11.3125 -6.265625 L 17.90625 -6.265625 C 19.425781 -6.265625 20.617188 -6.582031 21.484375 -7.21875 C 22.359375 -7.863281 22.796875 -8.753906 22.796875 -9.890625 C 22.796875 -10.953125 22.359375 -11.796875 21.484375 -12.421875 C 20.617188 -13.054688 19.425781 -13.375 17.90625 -13.375 Z M 11.3125 -13.375 "/></g></g></g><g fill="#ffffff" fill-opacity="1"><g transform="translate(200.99713, 118.837208)"><g><path d="M 11.359375 0 L 3.203125 0 L 3.203125 -32.046875 L 11.359375 -32.046875 Z M 11.359375 0 "/></g></g></g><g fill="#ffffff" fill-opacity="1"><g transform="translate(223.79208, 118.837208)"><g><path d="M 32.78125 0 L 25.59375 0 L 10.84375 -19.734375 L 10.84375 0 L 3.203125 0 L 3.203125 -32.046875 L 10.390625 -32.046875 L 25.171875 -12.265625 L 25.171875 -32.046875 L 32.78125 -32.046875 Z M 32.78125 0 "/></g></g></g><g fill="#ffffff" fill-opacity="1"><g transform="translate(268.004751, 118.837208)"><g><path d="M 18.21875 -32.328125 C 20.601562 -32.328125 22.945312 -31.835938 25.25 -30.859375 C 27.550781 -29.878906 29.507812 -28.566406 31.125 -26.921875 L 26.421875 -21.328125 C 25.378906 -22.609375 24.132812 -23.625 22.6875 -24.375 C 21.238281 -25.125 19.796875 -25.5 18.359375 -25.5 C 15.828125 -25.5 13.707031 -24.601562 12 -22.8125 C 10.289062 -21.03125 9.4375 -18.828125 9.4375 -16.203125 C 9.4375 -13.515625 10.289062 -11.269531 12 -9.46875 C 13.707031 -7.675781 15.828125 -6.78125 18.359375 -6.78125 C 19.703125 -6.78125 21.097656 -7.113281 22.546875 -7.78125 C 23.992188 -8.457031 25.285156 -9.375 26.421875 -10.53125 L 31.171875 -5.5 C 29.429688 -3.726562 27.378906 -2.304688 25.015625 -1.234375 C 22.648438 -0.171875 20.296875 0.359375 17.953125 0.359375 C 13.128906 0.359375 9.113281 -1.207031 5.90625 -4.34375 C 2.695312 -7.488281 1.09375 -11.410156 1.09375 -16.109375 C 1.09375 -20.722656 2.722656 -24.578125 5.984375 -27.671875 C 9.253906 -30.773438 13.332031 -32.328125 18.21875 -32.328125 Z M 18.21875 -32.328125 "/></g></g></g><g fill="#ffffff" fill-opacity="1"><g transform="translate(307.915564, 118.837208)"><g><path d="M 24.5 -5.90625 L 10.484375 -5.90625 L 8.15625 0 L -0.234375 0 L 13.59375 -32.046875 L 21.96875 -32.046875 L 35.484375 0 L 26.78125 0 Z M 22.109375 -12.09375 L 17.53125 -23.9375 L 12.859375 -12.09375 Z M 22.109375 -12.09375 "/></g></g></g><g fill="#ffffff" fill-opacity="1"><g transform="translate(351.396, 118.837208)"><g><path d="M 32.78125 0 L 25.59375 0 L 10.84375 -19.734375 L 10.84375 0 L 3.203125 0 L 3.203125 -32.046875 L 10.390625 -32.046875 L 25.171875 -12.265625 L 25.171875 -32.046875 L 32.78125 -32.046875 Z M 32.78125 0 "/></g></g></g><g fill="#ffffff" fill-opacity="1"><g transform="translate(395.60867, 118.837208)"><g><path d="M 24.5 -16.296875 L 31.546875 -16.296875 L 31.546875 -3.796875 C 29.804688 -2.578125 27.707031 -1.578125 25.25 -0.796875 C 22.789062 -0.0234375 20.445312 0.359375 18.21875 0.359375 C 13.332031 0.359375 9.253906 -1.203125 5.984375 -4.328125 C 2.722656 -7.453125 1.09375 -11.347656 1.09375 -16.015625 C 1.09375 -20.660156 2.769531 -24.539062 6.125 -27.65625 C 9.488281 -30.769531 13.703125 -32.328125 18.765625 -32.328125 C 21.148438 -32.328125 23.515625 -31.894531 25.859375 -31.03125 C 28.210938 -30.175781 30.210938 -29.019531 31.859375 -27.5625 L 27.28125 -22.015625 C 26.125 -23.085938 24.78125 -23.9375 23.25 -24.5625 C 21.726562 -25.1875 20.21875 -25.5 18.71875 -25.5 C 16.09375 -25.5 13.890625 -24.585938 12.109375 -22.765625 C 10.328125 -20.953125 9.4375 -18.703125 9.4375 -16.015625 C 9.4375 -13.304688 10.332031 -11.035156 12.125 -9.203125 C 13.925781 -7.367188 16.15625 -6.453125 18.8125 -6.453125 C 20.519531 -6.453125 22.414062 -6.972656 24.5 -8.015625 Z M 24.5 -16.296875 "/></g></g></g><g fill="#ffffff" fill-opacity="1"><g transform="translate(140.352396, 149.204963)"><g><path d="M 1.640625 -16.34375 L 9.359375 -16.34375 C 11.191406 -16.34375 12.648438 -15.972656 13.734375 -15.234375 C 14.816406 -14.492188 15.359375 -13.5 15.359375 -12.25 C 15.359375 -11.394531 15.109375 -10.644531 14.609375 -10 C 14.109375 -9.351562 13.425781 -8.90625 12.5625 -8.65625 C 13.582031 -8.457031 14.394531 -7.984375 15 -7.234375 C 15.613281 -6.484375 15.921875 -5.582031 15.921875 -4.53125 C 15.921875 -3.144531 15.351562 -2.039062 14.21875 -1.21875 C 13.09375 -0.40625 11.566406 0 9.640625 0 L 1.640625 0 Z M 5.765625 -13.171875 L 5.765625 -9.796875 L 9.125 -9.796875 C 9.726562 -9.796875 10.207031 -9.945312 10.5625 -10.25 C 10.925781 -10.5625 11.109375 -10.984375 11.109375 -11.515625 C 11.109375 -12.023438 10.925781 -12.425781 10.5625 -12.71875 C 10.207031 -13.019531 9.726562 -13.171875 9.125 -13.171875 Z M 5.765625 -6.8125 L 5.765625 -3.203125 L 9.125 -3.203125 C 9.90625 -3.203125 10.515625 -3.363281 10.953125 -3.6875 C 11.398438 -4.007812 11.625 -4.460938 11.625 -5.046875 C 11.625 -5.585938 11.398438 -6.015625 10.953125 -6.328125 C 10.515625 -6.648438 9.90625 -6.8125 9.125 -6.8125 Z M 5.765625 -6.8125 "/></g></g></g><g fill="#ffffff" fill-opacity="1"><g transform="translate(163.567583, 149.204963)"><g><path d="M 16.34375 -16.34375 L 16.34375 -6.859375 C 16.34375 -4.703125 15.671875 -2.988281 14.328125 -1.71875 C 12.992188 -0.445312 11.179688 0.1875 8.890625 0.1875 C 6.585938 0.1875 4.753906 -0.445312 3.390625 -1.71875 C 2.035156 -2.988281 1.359375 -4.703125 1.359375 -6.859375 L 1.359375 -16.34375 L 5.515625 -16.34375 L 5.515625 -6.859375 C 5.515625 -5.773438 5.828125 -4.910156 6.453125 -4.265625 C 7.085938 -3.617188 7.910156 -3.296875 8.921875 -3.296875 C 9.910156 -3.296875 10.703125 -3.613281 11.296875 -4.25 C 11.898438 -4.882812 12.203125 -5.753906 12.203125 -6.859375 L 12.203125 -16.34375 Z M 16.34375 -16.34375 "/></g></g></g><g fill="#ffffff" fill-opacity="1"><g transform="translate(187.785757, 149.204963)"><g><path d="M 1.640625 -16.34375 L 8.65625 -16.34375 C 11.226562 -16.34375 13.316406 -15.585938 14.921875 -14.078125 C 16.535156 -12.566406 17.34375 -10.597656 17.34375 -8.171875 C 17.34375 -5.753906 16.523438 -3.785156 14.890625 -2.265625 C 13.253906 -0.753906 11.125 0 8.5 0 L 1.640625 0 Z M 5.796875 -13.03125 L 5.796875 -3.3125 L 8.75 -3.3125 C 10.03125 -3.3125 11.078125 -3.757812 11.890625 -4.65625 C 12.710938 -5.550781 13.125 -6.710938 13.125 -8.140625 C 13.125 -9.578125 12.691406 -10.75 11.828125 -11.65625 C 10.972656 -12.570312 9.882812 -13.03125 8.5625 -13.03125 Z M 5.796875 -13.03125 "/></g></g></g><g fill="#ffffff" fill-opacity="1"><g transform="translate(212.213856, 149.204963)"><g><path d="M 5.796875 0 L 1.640625 0 L 1.640625 -16.34375 L 5.796875 -16.34375 Z M 5.796875 0 "/></g></g></g><g fill="#ffffff" fill-opacity="1"><g transform="translate(226.168905, 149.204963)"><g><path d="M 1.640625 -16.34375 L 8.65625 -16.34375 C 11.226562 -16.34375 13.316406 -15.585938 14.921875 -14.078125 C 16.535156 -12.566406 17.34375 -10.597656 17.34375 -8.171875 C 17.34375 -5.753906 16.523438 -3.785156 14.890625 -2.265625 C 13.253906 -0.753906 11.125 0 8.5 0 L 1.640625 0 Z M 5.796875 -13.03125 L 5.796875 -3.3125 L 8.75 -3.3125 C 10.03125 -3.3125 11.078125 -3.757812 11.890625 -4.65625 C 12.710938 -5.550781 13.125 -6.710938 13.125 -8.140625 C 13.125 -9.578125 12.691406 -10.75 11.828125 -11.65625 C 10.972656 -12.570312 9.882812 -13.03125 8.5625 -13.03125 Z M 5.796875 -13.03125 "/></g></g></g><g fill="#ffffff" fill-opacity="1"><g transform="translate(250.596998, 149.204963)"><g><path d="M 12.484375 -3.015625 L 5.34375 -3.015625 L 4.15625 0 L -0.109375 0 L 6.9375 -16.34375 L 11.203125 -16.34375 L 18.09375 0 L 13.65625 0 Z M 11.28125 -6.15625 L 8.9375 -12.203125 L 6.5625 -6.15625 Z M 11.28125 -6.15625 "/></g></g></g><g fill="#ffffff" fill-opacity="1"><g transform="translate(275.095054, 149.204963)"><g><path d="M 10.0625 -5.28125 L 10.0625 0 L 5.921875 0 L 5.921875 -5.15625 L -0.109375 -16.34375 L 4.03125 -16.34375 L 7.984375 -9.21875 L 11.828125 -16.34375 L 15.984375 -16.34375 Z M 10.0625 -5.28125 "/></g></g></g><g fill="#ffffff" fill-opacity="1"><g transform="translate(297.493834, 149.204963)"><g><path d="M 12.484375 -3.015625 L 5.34375 -3.015625 L 4.15625 0 L -0.109375 0 L 6.9375 -16.34375 L 11.203125 -16.34375 L 18.09375 0 L 13.65625 0 Z M 11.28125 -6.15625 L 8.9375 -12.203125 L 6.5625 -6.15625 Z M 11.28125 -6.15625 "/></g></g></g><g fill="#ffffff" fill-opacity="1"><g transform="translate(321.99189, 149.204963)"><g/></g></g><g fill="#ffffff" fill-opacity="1"><g transform="translate(333.94094, 149.204963)"><g><path d="M 16.34375 -16.34375 L 16.34375 -6.859375 C 16.34375 -4.703125 15.671875 -2.988281 14.328125 -1.71875 C 12.992188 -0.445312 11.179688 0.1875 8.890625 0.1875 C 6.585938 0.1875 4.753906 -0.445312 3.390625 -1.71875 C 2.035156 -2.988281 1.359375 -4.703125 1.359375 -6.859375 L 1.359375 -16.34375 L 5.515625 -16.34375 L 5.515625 -6.859375 C 5.515625 -5.773438 5.828125 -4.910156 6.453125 -4.265625 C 7.085938 -3.617188 7.910156 -3.296875 8.921875 -3.296875 C 9.910156 -3.296875 10.703125 -3.613281 11.296875 -4.25 C 11.898438 -4.882812 12.203125 -5.753906 12.203125 -6.859375 L 12.203125 -16.34375 Z M 16.34375 -16.34375 "/></g></g></g><g fill="#ffffff" fill-opacity="1"><g transform="translate(358.159109, 149.204963)"><g><path d="M 1.640625 -16.34375 L 8.65625 -16.34375 C 11.226562 -16.34375 13.316406 -15.585938 14.921875 -14.078125 C 16.535156 -12.566406 17.34375 -10.597656 17.34375 -8.171875 C 17.34375 -5.753906 16.523438 -3.785156 14.890625 -2.265625 C 13.253906 -0.753906 11.125 0 8.5 0 L 1.640625 0 Z M 5.796875 -13.03125 L 5.796875 -3.3125 L 8.75 -3.3125 C 10.03125 -3.3125 11.078125 -3.757812 11.890625 -4.65625 C 12.710938 -5.550781 13.125 -6.710938 13.125 -8.140625 C 13.125 -9.578125 12.691406 -10.75 11.828125 -11.65625 C 10.972656 -12.570312 9.882812 -13.03125 8.5625 -13.03125 Z M 5.796875 -13.03125 "/></g></g></g><g fill="#ffffff" fill-opacity="1"><g transform="translate(382.587202, 149.204963)"><g><path d="M 12.484375 -3.015625 L 5.34375 -3.015625 L 4.15625 0 L -0.109375 0 L 6.9375 -16.34375 L 11.203125 -16.34375 L 18.09375 0 L 13.65625 0 Z M 11.28125 -6.15625 L 8.9375 -12.203125 L 6.5625 -6.15625 Z M 11.28125 -6.15625 "/></g></g></g><g fill="#ffffff" fill-opacity="1"><g transform="translate(407.085258, 149.204963)"><g><path d="M 16.71875 0 L 13.046875 0 L 5.53125 -10.0625 L 5.53125 0 L 1.640625 0 L 1.640625 -16.34375 L 5.296875 -16.34375 L 12.84375 -6.25 L 12.84375 -16.34375 L 16.71875 -16.34375 Z M 16.71875 0 "/></g></g></g><g fill="#ffffff" fill-opacity="1"><g transform="translate(431.956522, 149.204963)"><g><path d="M 12.484375 -8.3125 L 16.078125 -8.3125 L 16.078125 -1.9375 C 15.191406 -1.3125 14.125 -0.800781 12.875 -0.40625 C 11.625 -0.0078125 10.429688 0.1875 9.296875 0.1875 C 6.804688 0.1875 4.726562 -0.609375 3.0625 -2.203125 C 1.394531 -3.796875 0.5625 -5.785156 0.5625 -8.171875 C 0.5625 -10.535156 1.414062 -12.507812 3.125 -14.09375 C 4.84375 -15.6875 6.992188 -16.484375 9.578125 -16.484375 C 10.785156 -16.484375 11.988281 -16.265625 13.1875 -15.828125 C 14.382812 -15.390625 15.40625 -14.796875 16.25 -14.046875 L 13.90625 -11.234375 C 13.320312 -11.773438 12.640625 -12.203125 11.859375 -12.515625 C 11.078125 -12.835938 10.304688 -13 9.546875 -13 C 8.210938 -13 7.085938 -12.535156 6.171875 -11.609375 C 5.265625 -10.679688 4.8125 -9.535156 4.8125 -8.171875 C 4.8125 -6.785156 5.269531 -5.625 6.1875 -4.6875 C 7.101562 -3.757812 8.238281 -3.296875 9.59375 -3.296875 C 10.46875 -3.296875 11.429688 -3.554688 12.484375 -4.078125 Z M 12.484375 -8.3125 "/></g></g></g></svg>